<svg width="100" height="100" viewBox="0 0 100 100" fill="none" xmlns="http://www.w3.org/2000/svg">
<rect width="100" height="100" fill="white"/>
<g clip-path="url(#clip0_143_837)">
<mask id="mask0_143_837" style="mask-type:luminance" maskUnits="userSpaceOnUse" x="4" y="5" width="91" height="91">
<path d="M95 5H4V96H95V5Z" fill="white"/>
</mask>
<g mask="url(#mask0_143_837)">
<path d="M84.193 31.7313C77.368 30.025 69.4055 36.2813 62.5805 38.5563C67.1305 32.8688 73.3868 27.1813 75.093 20.3563C76.7993 12.9625 70.543 5.56875 62.5805 5.56875C57.4618 5.56875 53.4805 7.84375 51.2055 11.825C48.3618 7.84375 44.3805 5 39.2618 5C32.4368 5 26.7493 10.1188 26.1805 16.375C25.6118 23.7688 33.0055 31.7313 36.9868 37.4188C30.7305 34.575 25.043 25.475 15.3743 28.3188C8.54927 30.5938 3.99927 36.85 5.70552 43.675C6.84302 48.225 10.2555 51.6375 14.8055 52.775C11.393 56.1875 9.68677 60.7375 10.8243 65.2875C12.5305 72.1125 19.9243 76.6625 26.7493 74.9563C32.4368 73.8188 39.8305 65.2875 46.0868 57.325C46.0868 60.7375 45.518 64.15 46.0868 68.1313C46.6555 72.6813 47.2243 77.2313 48.9305 81.7813C50.6368 86.3313 52.9118 90.8813 56.3243 94.2938C57.4618 95.4313 63.1493 90.8813 61.443 89.7438C58.5993 86.9 56.3243 83.4875 54.618 79.5063C52.9118 75.525 51.7743 71.5438 51.7743 67.5625C51.2055 64.7188 51.2055 60.1688 51.2055 57.325C56.893 65.2875 63.718 76.0938 69.4055 77.8C76.2305 80.075 83.6243 76.0938 85.8993 69.2688C87.0368 64.7188 85.8993 60.1688 82.4868 56.7563C87.0368 55.6188 91.018 52.2063 92.1555 47.6563C94.9993 40.8313 91.018 33.4375 84.193 31.7313Z" fill="#039834"/>
</g>
</g>
<defs>
<clipPath id="clip0_143_837">
<rect width="91" height="91" fill="white" transform="translate(4 5)"/>
</clipPath>
</defs>
</svg>
